<svg xmlns="http://www.w3.org/2000/svg" width="160" height="160" viewBox="0 0 160 160"><defs><radialGradient id="bg" cx="44%" cy="36%" r="65%"><stop offset="0%" stop-color="#16223a"/><stop offset="100%" stop-color="#080d16"/></radialGradient><linearGradient id="rim" x1="0%" x2="100%" y1="0%" y2="100%"><stop offset="0%" stop-color="#38bdf8" stop-opacity=".75"/><stop offset="45%" stop-color="#a78bfa" stop-opacity=".55"/><stop offset="100%" stop-color="#34d399" stop-opacity=".45"/></linearGradient><radialGradient id="vignette" cx="50%" cy="50%" r="50%"><stop offset="60%" stop-color="#000" stop-opacity="0"/><stop offset="100%" stop-color="#000" stop-opacity=".35"/></radialGradient><filter id="glow" width="260%" height="260%" x="-80%" y="-80%"><feGaussianBlur stdDeviation="5"/></filter></defs><circle cx="80" cy="80" r="72" fill="none" stroke="url(#rim)" stroke-width="8" filter="url(#glow)" opacity=".25"/><circle cx="80" cy="80" r="72" fill="url(#bg)"/><circle cx="80" cy="80" r="72" fill="none" stroke="url(#rim)" stroke-width="1.2"/><circle cx="80" cy="80" r="72" fill="url(#vignette)"/><line x1="72" x2="72" y1="10" y2="46" stroke="#38bdf8" stroke-linecap="round" stroke-width="2.2" opacity=".9"/><line x1="72" x2="72" y1="57" y2="95" stroke="#38bdf8" stroke-linecap="round" stroke-width="2.2" opacity=".9"/><line x1="72" x2="72" y1="108" y2="150" stroke="#38bdf8" stroke-linecap="round" stroke-width="2.2" opacity=".9"/><line x1="100" x2="100" y1="67" y2="88" stroke="#a78bfa" stroke-linecap="round" stroke-width="2.2" opacity=".9"/><path fill="none" stroke="#38bdf8" stroke-linecap="round" stroke-width="2.2" d="M 72 46 C 86 46 86 67 100 67" opacity=".72"/><path fill="none" stroke="#a78bfa" stroke-linecap="round" stroke-width="2.2" d="M 100 88 C 86 88 86 108 72 108" opacity=".72"/><circle cx="72" cy="28" r="10" fill="#38bdf8" opacity=".1"/><circle cx="72" cy="28" r="5" fill="#38bdf8"/><circle cx="72" cy="28" r="3.2" fill="#080d16"/><circle cx="72" cy="28" r="3.2" fill="#38bdf8" opacity=".55"/><circle cx="72" cy="52" r="10" fill="#38bdf8" opacity=".1"/><circle cx="72" cy="52" r="5" fill="#38bdf8"/><circle cx="72" cy="52" r="3.2" fill="#080d16"/><circle cx="72" cy="52" r="3.2" fill="#38bdf8" opacity=".55"/><circle cx="100" cy="78" r="16" fill="#a78bfa" filter="url(#glow)" opacity=".1"/><circle cx="100" cy="78" r="11" fill="#a78bfa" opacity=".12"/><circle cx="100" cy="78" r="6" fill="#a78bfa"/><circle cx="100" cy="78" r="3.8" fill="#080d16"/><circle cx="100" cy="78" r="3.8" fill="#a78bfa" opacity=".55"/><circle cx="100" cy="78" r="9.5" fill="none" stroke="#a78bfa" stroke-width="1.5" opacity=".85"/><circle cx="72" cy="102" r="10" fill="#38bdf8" opacity=".1"/><circle cx="72" cy="102" r="5" fill="#38bdf8"/><circle cx="72" cy="102" r="3.2" fill="#080d16"/><circle cx="72" cy="102" r="3.2" fill="#38bdf8" opacity=".55"/><circle cx="72" cy="102" r="7.5" fill="none" stroke="#38bdf8" stroke-width="1" opacity=".42"/><circle cx="72" cy="128" r="10" fill="#38bdf8" opacity=".1"/><circle cx="72" cy="128" r="5" fill="#38bdf8"/><circle cx="72" cy="128" r="3.2" fill="#080d16"/><circle cx="72" cy="128" r="3.2" fill="#38bdf8" opacity=".55"/><circle cx="118" cy="116" r="4" fill="#34d399" opacity=".9"/><circle cx="118" cy="116" r="8" fill="#34d399" opacity=".18"/></svg>