<svg xmlns="http://www.w3.org/2000/svg" width="480" height="160" viewBox="0 0 480 160"><defs><radialGradient id="emblemBg" cx="44%" cy="36%" r="65%"><stop offset="0%" stop-color="#16223a"/><stop offset="100%" stop-color="#080d16"/></radialGradient><linearGradient id="rimGrad" x1="0%" x2="100%" y1="0%" y2="100%"><stop offset="0%" stop-color="#38bdf8" stop-opacity=".75"/><stop offset="45%" stop-color="#a78bfa" stop-opacity=".55"/><stop offset="100%" stop-color="#34d399" stop-opacity=".45"/></linearGradient><radialGradient id="tealGlow" cx="50%" cy="50%" r="50%"><stop offset="0%" stop-color="#38bdf8" stop-opacity=".45"/><stop offset="100%" stop-color="#38bdf8" stop-opacity="0"/></radialGradient><radialGradient id="violetGlow" cx="50%" cy="50%" r="50%"><stop offset="0%" stop-color="#a78bfa" stop-opacity=".5"/><stop offset="100%" stop-color="#a78bfa" stop-opacity="0"/></radialGradient><radialGradient id="vignette" cx="50%" cy="50%" r="50%"><stop offset="60%" stop-color="#000" stop-opacity="0"/><stop offset="100%" stop-color="#000" stop-opacity=".35"/></radialGradient><filter id="softBlur" width="200%" height="200%" x="-50%" y="-50%"><feGaussianBlur stdDeviation="4"/></filter></defs><g transform="translate(0, 0)"><circle cx="80" cy="80" r="72" fill="none" stroke="url(#rimGrad)" stroke-width="6" filter="url(#softBlur)" opacity=".3"/><circle cx="80" cy="80" r="70" fill="url(#emblemBg)"/><circle cx="80" cy="80" r="70" fill="none" stroke="url(#rimGrad)" stroke-width="1.2"/><circle cx="80" cy="80" r="70" fill="url(#vignette)"/><line x1="72" x2="72" y1="15" y2="46" stroke="#38bdf8" stroke-linecap="round" stroke-width="2" opacity=".9"/><line x1="72" x2="72" y1="57" y2="97" stroke="#38bdf8" stroke-linecap="round" stroke-width="2" opacity=".9"/><line x1="72" x2="72" y1="110" y2="145" stroke="#38bdf8" stroke-linecap="round" stroke-width="2" opacity=".9"/><line x1="96" x2="96" y1="67" y2="91" stroke="#a78bfa" stroke-linecap="round" stroke-width="2" opacity=".9"/><path fill="none" stroke="#38bdf8" stroke-linecap="round" stroke-width="2" d="M 72 46 C 84 46 84 67 96 67" opacity=".75"/><path fill="none" stroke="#a78bfa" stroke-linecap="round" stroke-width="2" d="M 96 91 C 84 91 84 110 72 110" opacity=".75"/><circle cx="72" cy="30" r="9" fill="#38bdf8" opacity=".11"/><circle cx="72" cy="30" r="4.5" fill="#38bdf8"/><circle cx="72" cy="30" r="2.8" fill="#080d16"/><circle cx="72" cy="30" r="2.8" fill="#38bdf8" opacity=".55"/><circle cx="72" cy="52" r="9" fill="#38bdf8" opacity=".11"/><circle cx="72" cy="52" r="4.5" fill="#38bdf8"/><circle cx="72" cy="52" r="2.8" fill="#080d16"/><circle cx="72" cy="52" r="2.8" fill="#38bdf8" opacity=".55"/><circle cx="96" cy="79" r="14" fill="#a78bfa" filter="url(#softBlur)" opacity=".12"/><circle cx="96" cy="79" r="10" fill="#a78bfa" opacity=".13"/><circle cx="96" cy="79" r="5.5" fill="#a78bfa"/><circle cx="96" cy="79" r="3.5" fill="#080d16"/><circle cx="96" cy="79" r="3.5" fill="#a78bfa" opacity=".55"/><circle cx="96" cy="79" r="8.5" fill="none" stroke="#a78bfa" stroke-width="1.5" opacity=".85"/><circle cx="72" cy="104" r="9" fill="#38bdf8" opacity=".11"/><circle cx="72" cy="104" r="4.5" fill="#38bdf8"/><circle cx="72" cy="104" r="2.8" fill="#080d16"/><circle cx="72" cy="104" r="2.8" fill="#38bdf8" opacity=".55"/><circle cx="72" cy="104" r="7" fill="none" stroke="#38bdf8" stroke-width="1" opacity=".45"/><circle cx="72" cy="128" r="9" fill="#38bdf8" opacity=".11"/><circle cx="72" cy="128" r="4.5" fill="#38bdf8"/><circle cx="72" cy="128" r="2.8" fill="#080d16"/><circle cx="72" cy="128" r="2.8" fill="#38bdf8" opacity=".55"/><circle cx="116" cy="118" r="3.5" fill="#34d399" opacity=".85"/><circle cx="116" cy="118" r="6.5" fill="#34d399" opacity=".18"/></g><g transform="translate(178, 0)"><text x="0" y="78" fill="#64748b" dominant-baseline="auto" font-family="'SF Pro Display', 'Segoe UI', 'Inter', system-ui, -apple-system, sans-serif" font-size="48" font-weight="300" letter-spacing="-.5">git</text><text x="0" y="122" fill="#f1f5f9" dominant-baseline="auto" font-family="'SF Pro Display', 'Segoe UI', 'Inter', system-ui, -apple-system, sans-serif" font-size="48" font-weight="700" letter-spacing="3">PILOT</text><rect width="228" height="2" x="0" y="128" fill="url(#rimGrad)" opacity=".7" rx="1"/><text x="0" y="148" fill="#38bdf8" dominant-baseline="auto" font-family="'SF Pro Display', 'Segoe UI', 'Inter', system-ui, -apple-system, sans-serif" font-size="11" font-weight="400" letter-spacing="2.5" opacity=".65">VISUAL GIT CLIENT</text></g></svg>